<svg width="64" height="64" viewBox="0 0 64 64" fill="none" xmlns="http://www.w3.org/2000/svg">
<circle cx="32" cy="32" r="32" fill="#16203E"/>
<circle cx="32" cy="32" r="32" fill="url(#paint0_linear_5105_2107)"/>
<path d="M11.7968 21C9.5101 24.0251 9.96534 26.0766 13.28 28.796C16.2694 31.248 19.9554 32.7846 23.9393 33.9425C29.486 35.5538 35.1209 36.6635 41.1187 36.1103C47.1207 35.5555 52.1031 31.8809 52.6486 27.3558C52.7745 26.3042 52.3591 25.2128 52.1934 24.1563C54.6332 26.2444 55.6024 28.8176 55.3444 31.645C55.0171 35.2282 53.5717 38.5506 50.8004 41.4312C47.2613 45.1091 42.3606 46.4812 36.7572 45.8533C26.463 44.7004 17.7275 41.1504 11.2178 34.5754C9.14507 32.4756 7.78566 30.115 7.41853 27.4206C7.11014 25.1497 8.94158 22.2592 11.7968 21Z" fill="#0AA399"/>
<path d="M33.6993 34.9816C35.4893 34.2109 37.2384 33.7468 38.5536 32.8318C40.9487 31.166 40.8748 28.3234 38.721 25.8752C35.1799 21.8442 30.6291 19.1822 24.6152 18.3683C24.7826 18.2374 24.8721 18.1015 24.9693 18.0982C30.9482 17.9009 36.931 17.8363 42.6686 19.5618C44.4586 20.1005 46.2233 20.8613 47.7681 21.7977C50.562 23.4901 50.9784 25.1907 49.9452 28.0184C48.4413 32.1324 44.1298 34.8026 38.8494 34.9733C37.1606 35.028 35.4659 34.9816 33.6993 34.9816Z" fill="#14E3AE"/>
<path d="M16.9567 30C15.1387 28.8313 13.711 27.4736 12.8318 25.7843C11.5438 23.3093 12.6757 21.0863 15.7652 20.08C21.5191 18.2034 26.9012 18.7588 31.8046 21.8522C33.072 22.6528 34.2039 23.5928 35.6932 24.6869C27.16 22.6495 17.2073 26.1275 16.9587 30H16.9567Z" fill="#14E3AE"/>
<defs>
<linearGradient id="paint0_linear_5105_2107" x1="33.5" y1="36.5" x2="-7.5" y2="94.5" gradientUnits="userSpaceOnUse">
<stop stop-color="#14E3AE" stop-opacity="0"/>
<stop offset="1" stop-color="#14E3AE"/>
</linearGradient>
</defs>
</svg>
