<svg width="65" height="65" viewBox="0 0 65 65" fill="none" xmlns="http://www.w3.org/2000/svg">
<path d="M32.5958 6.53725L14.6826 11.3371C8.18499 13.0781 5.42127 17.8963 7.16802 24.4153L13.0841 46.4942C14.8594 53.1201 19.6391 55.8254 26.1367 54.0844L44.0499 49.2845C50.6522 47.5154 53.332 42.8114 51.5566 36.1855L45.6406 14.1066C43.8938 7.58762 39.1981 4.76816 32.5958 6.53725Z" fill="url(#paint0_linear_5105_1986)"/>
<g filter="url(#filter0_f_5105_1986)">
<rect x="20.3369" y="46.3818" width="28.5766" height="24.199" rx="6.81739" transform="rotate(-105 20.3369 46.3818)" fill="#8237FF" fill-opacity="0.5"/>
</g>
<g filter="url(#filter1_b_5105_1986)">
<path d="M49.4385 17.9619H30.8934C24.1666 17.9619 20.25 21.9006 20.25 28.6496V51.5074C20.25 58.3669 24.1666 62.2172 30.8934 62.2172H49.4385C56.2738 62.2172 60.0797 58.3669 60.0797 51.5074V28.6496C60.0797 21.9006 56.2738 17.9619 49.4385 17.9619Z" fill="#BA90FF" fill-opacity="0.35"/>
<path d="M49.4385 17.7184H30.8934C27.4827 17.7184 24.7533 18.7179 22.8766 20.6031C21.0001 22.4882 20.0065 25.2284 20.0065 28.6496V51.5074C20.0065 54.9829 20.9996 57.7293 22.877 59.6068C24.7544 61.4841 27.4841 62.4606 30.8934 62.4606H49.4385C52.9011 62.4606 55.6312 61.4846 57.4952 59.6061C59.3588 57.7279 60.3232 54.9811 60.3232 51.5074V28.6496C60.3232 25.2302 59.3583 22.4897 57.4956 20.6038C55.6323 18.7174 52.9026 17.7184 49.4385 17.7184Z" stroke="url(#paint1_linear_5105_1986)" stroke-width="0.486957" stroke-linecap="round" stroke-linejoin="round"/>
</g>
<g filter="url(#filter2_bd_5105_1986)">
<mask id="path-5-inside-1_5105_1986" fill="white">
<path fill-rule="evenodd" clip-rule="evenodd" d="M31.4962 28.252V28.2741C30.5425 28.2741 29.7702 29.0485 29.7702 30C29.7702 30.9515 30.5425 31.726 31.4962 31.726H38.1101C39.0638 31.726 39.8383 30.9515 39.8383 29.9757C39.8383 29.0264 39.0638 28.252 38.1101 28.252H31.4962ZM48.8442 41.7278H31.4962C30.5425 41.7278 29.7702 40.9534 29.7702 40.0019C29.7702 39.0504 30.5425 38.2737 31.4962 38.2737H48.8442C49.7957 38.2737 50.5702 39.0504 50.5702 40.0019C50.5702 40.9534 49.7957 41.7278 48.8442 41.7278ZM48.8425 51.8402H31.4944C30.8306 51.9287 30.1889 51.5968 29.8349 51.0436C29.4808 50.4683 29.4808 49.7381 29.8349 49.1849C30.1889 48.6096 30.8306 48.2998 31.4944 48.3662H48.8425C49.7254 48.4547 50.3914 49.207 50.3914 50.1143C50.3914 50.9972 49.7254 51.7517 48.8425 51.8402Z"/>
</mask>
<path fill-rule="evenodd" clip-rule="evenodd" d="M31.4962 28.252V28.2741C30.5425 28.2741 29.7702 29.0485 29.7702 30C29.7702 30.9515 30.5425 31.726 31.4962 31.726H38.1101C39.0638 31.726 39.8383 30.9515 39.8383 29.9757C39.8383 29.0264 39.0638 28.252 38.1101 28.252H31.4962ZM48.8442 41.7278H31.4962C30.5425 41.7278 29.7702 40.9534 29.7702 40.0019C29.7702 39.0504 30.5425 38.2737 31.4962 38.2737H48.8442C49.7957 38.2737 50.5702 39.0504 50.5702 40.0019C50.5702 40.9534 49.7957 41.7278 48.8442 41.7278ZM48.8425 51.8402H31.4944C30.8306 51.9287 30.1889 51.5968 29.8349 51.0436C29.4808 50.4683 29.4808 49.7381 29.8349 49.1849C30.1889 48.6096 30.8306 48.2998 31.4944 48.3662H48.8425C49.7254 48.4547 50.3914 49.207 50.3914 50.1143C50.3914 50.9972 49.7254 51.7517 48.8425 51.8402Z" fill="url(#paint2_linear_5105_1986)"/>
<path d="M31.4962 28.2741V28.4689H31.691V28.2741H31.4962ZM31.4962 28.252V28.0572H31.3014V28.252H31.4962ZM31.4944 51.8402V51.6454H31.4815L31.4687 51.6471L31.4944 51.8402ZM48.8425 51.8402V52.035H48.8522L48.8619 52.034L48.8425 51.8402ZM29.8349 51.0436L29.669 51.1457L29.6708 51.1486L29.8349 51.0436ZM29.8349 49.1849L29.999 49.2899L30.0008 49.287L29.8349 49.1849ZM31.4944 48.3662L31.4751 48.56L31.4847 48.561H31.4944V48.3662ZM48.8425 48.3662L48.8619 48.1724L48.8522 48.1714H48.8425V48.3662ZM31.691 28.2741V28.252H31.3014V28.2741H31.691ZM29.965 30C29.965 29.156 30.6502 28.4689 31.4962 28.4689V28.0793C30.4347 28.0793 29.5754 28.9411 29.5754 30H29.965ZM31.4962 31.5312C30.6502 31.5312 29.965 30.8441 29.965 30H29.5754C29.5754 31.0589 30.4347 31.9208 31.4962 31.9208V31.5312ZM38.1101 31.5312H31.4962V31.9208H38.1101V31.5312ZM39.6435 29.9757C39.6435 30.8456 38.9546 31.5312 38.1101 31.5312V31.9208C39.173 31.9208 40.0331 31.0575 40.0331 29.9757H39.6435ZM38.1101 28.4467C38.9566 28.4467 39.6435 29.1343 39.6435 29.9757H40.0331C40.0331 28.9185 39.1711 28.0572 38.1101 28.0572V28.4467ZM31.4962 28.4467H38.1101V28.0572H31.4962V28.4467ZM31.4962 41.9226H48.8442V41.5331H31.4962V41.9226ZM29.5754 40.0019C29.5754 41.0608 30.4347 41.9226 31.4962 41.9226V41.5331C30.6502 41.5331 29.965 40.846 29.965 40.0019H29.5754ZM31.4962 38.0789C30.4344 38.0789 29.5754 38.9433 29.5754 40.0019H29.965C29.965 39.1575 30.6505 38.4685 31.4962 38.4685V38.0789ZM48.8442 38.0789H31.4962V38.4685H48.8442V38.0789ZM50.765 40.0019C50.765 38.9431 49.9036 38.0789 48.8442 38.0789V38.4685C49.6878 38.4685 50.3754 39.1576 50.3754 40.0019H50.765ZM48.8442 41.9226C49.9033 41.9226 50.765 41.0609 50.765 40.0019H50.3754C50.3754 40.8458 49.6881 41.5331 48.8442 41.5331V41.9226ZM31.4944 52.035H48.8425V51.6454H31.4944V52.035ZM29.6708 51.1486C30.062 51.7599 30.7749 52.1327 31.5202 52.0333L31.4687 51.6471C30.8863 51.7248 30.3158 51.4337 29.9989 50.9386L29.6708 51.1486ZM29.6708 49.0799C29.275 49.6983 29.2772 50.5091 29.669 51.1457L30.0008 50.9415C29.6845 50.4276 29.6866 49.7779 29.9989 49.2899L29.6708 49.0799ZM31.5138 48.1724C30.7769 48.0987 30.0627 48.443 29.669 49.0828L30.0008 49.287C30.3151 48.7762 30.8843 48.5009 31.4751 48.56L31.5138 48.1724ZM48.8425 48.1714H31.4944V48.561H48.8425V48.1714ZM50.5862 50.1143C50.5862 49.1107 49.848 48.2712 48.8619 48.1724L48.8231 48.56C49.6028 48.6382 50.1966 49.3034 50.1966 50.1143H50.5862ZM48.8619 52.034C49.8466 51.9353 50.5862 51.0949 50.5862 50.1143H50.1966C50.1966 50.8994 49.6041 51.5681 48.8231 51.6464L48.8619 52.034Z" fill="url(#paint3_linear_5105_1986)" mask="url(#path-5-inside-1_5105_1986)"/>
</g>
<defs>
<filter id="filter0_f_5105_1986" x="1.32337" y="0.898073" width="54.0051" height="57.1013" filterUnits="userSpaceOnUse" color-interpolation-filters="sRGB">
<feFlood flood-opacity="0" result="BackgroundImageFix"/>
<feBlend mode="normal" in="SourceGraphic" in2="BackgroundImageFix" result="shape"/>
<feGaussianBlur stdDeviation="6.57391" result="effect1_foregroundBlur_5105_1986"/>
</filter>
<filter id="filter1_b_5105_1986" x="8.07623" y="5.78765" width="64.1776" height="68.6034" filterUnits="userSpaceOnUse" color-interpolation-filters="sRGB">
<feFlood flood-opacity="0" result="BackgroundImageFix"/>
<feGaussianBlur in="BackgroundImageFix" stdDeviation="5.84348"/>
<feComposite in2="SourceAlpha" operator="in" result="effect1_backgroundBlur_5105_1986"/>
<feBlend mode="normal" in="SourceGraphic" in2="effect1_backgroundBlur_5105_1986" result="shape"/>
</filter>
<filter id="filter2_bd_5105_1986" x="22.265" y="20.9476" width="35.6097" height="38.2112" filterUnits="userSpaceOnUse" color-interpolation-filters="sRGB">
<feFlood flood-opacity="0" result="BackgroundImageFix"/>
<feGaussianBlur in="BackgroundImageFix" stdDeviation="3.65217"/>
<feComposite in2="SourceAlpha" operator="in" result="effect1_backgroundBlur_5105_1986"/>
<feColorMatrix in="SourceAlpha" type="matrix" values="0 0 0 0 0 0 0 0 0 0 0 0 0 0 0 0 0 0 127 0" result="hardAlpha"/>
<feOffset dx="2.43478" dy="2.43478"/>
<feGaussianBlur stdDeviation="2.43478"/>
<feColorMatrix type="matrix" values="0 0 0 0 0.577356 0 0 0 0 0.359375 0 0 0 0 0.9375 0 0 0 0.5 0"/>
<feBlend mode="normal" in2="effect1_backgroundBlur_5105_1986" result="effect2_dropShadow_5105_1986"/>
<feBlend mode="normal" in="SourceGraphic" in2="effect2_dropShadow_5105_1986" result="shape"/>
</filter>
<linearGradient id="paint0_linear_5105_1986" x1="23.6381" y1="8.93745" x2="35.0922" y2="51.6847" gradientUnits="userSpaceOnUse">
<stop stop-color="#BC94FF"/>
<stop offset="1" stop-color="#9F66FF"/>
</linearGradient>
<linearGradient id="paint1_linear_5105_1986" x1="26.5902" y1="23.1177" x2="55.2994" y2="55.119" gradientUnits="userSpaceOnUse">
<stop stop-color="white" stop-opacity="0.25"/>
<stop offset="1" stop-color="white" stop-opacity="0"/>
</linearGradient>
<linearGradient id="paint2_linear_5105_1986" x1="49.0812" y1="32.5141" x2="25.6831" y2="33.1929" gradientUnits="userSpaceOnUse">
<stop stop-color="white"/>
<stop offset="1" stop-color="white" stop-opacity="0.2"/>
</linearGradient>
<linearGradient id="paint3_linear_5105_1986" x1="32.9123" y1="31.0017" x2="48.2416" y2="47.8947" gradientUnits="userSpaceOnUse">
<stop stop-color="white" stop-opacity="0.25"/>
<stop offset="1" stop-color="white" stop-opacity="0"/>
</linearGradient>
</defs>
</svg>
