<svg width="67" height="64" viewBox="0 0 67 64" fill="none" xmlns="http://www.w3.org/2000/svg">
<path fill-rule="evenodd" clip-rule="evenodd" d="M32.0533 29.5897C33.9248 22.6053 41.0436 18.4443 47.9536 20.2959C51.2719 21.185 54.0973 23.3701 55.8082 26.3704C57.5191 29.3708 57.9754 32.9406 57.0767 36.2947C55.2053 43.279 48.0865 47.44 41.1765 45.5885C34.2664 43.7369 30.1819 36.574 32.0533 29.5897ZM54.1388 46.4262L57.0411 50.4078C57.0528 50.4238 57.0697 50.4354 57.0888 50.4405C57.1113 50.4465 57.1305 50.4613 57.1416 50.4817C57.6663 51.4409 57.3321 52.6555 56.3845 53.2094C55.4264 53.7694 54.2041 53.4418 53.6544 52.4778L51.5117 48.1052C51.2983 47.7324 51.2412 47.2883 51.3529 46.8712C51.4647 46.454 51.7362 46.098 52.1075 45.8819C52.8213 45.473 53.7251 45.7152 54.1388 46.4262Z" fill="url(#paint0_linear_5105_1994)"/>
<g filter="url(#filter0_f_5105_1994)">
<path d="M46.4107 26.0522C42.6458 25.0434 38.7672 27.3105 37.7475 31.1158C36.7279 34.9212 38.9533 38.8239 42.7182 39.8327C46.4831 40.8415 50.3617 38.5744 51.3813 34.769C51.871 32.9416 51.6224 30.9966 50.6902 29.3619C49.758 27.7271 48.2186 26.5366 46.4107 26.0522Z" fill="#0062FF" fill-opacity="0.5"/>
</g>
<g filter="url(#filter1_b_5105_1994)">
<g filter="url(#filter2_b_5105_1994)">
<mask id="path-3-outside-1_5105_1994" maskUnits="userSpaceOnUse" x="-1.39415" y="-1.22474" width="58.7878" height="58.7878" fill="black">
<rect fill="white" x="-1.39415" y="-1.22474" width="58.7878" height="58.7878"/>
<path fill-rule="evenodd" clip-rule="evenodd" d="M49.3176 18.8635C46.5261 8.44548 35.9076 2.23887 25.6005 5.00066C20.6508 6.32692 16.4364 9.58626 13.8844 14.0617C11.3323 18.5371 10.6517 23.8619 11.9922 28.8648C14.7837 39.2829 25.4023 45.4895 35.7094 42.7277C46.0165 39.9659 52.1091 29.2815 49.3176 18.8635ZM16.3716 43.9791L12.0155 49.9551L11.919 49.981C11.0991 51.4189 11.5929 53.2617 13.0219 54.097C14.451 54.9323 16.2742 54.4438 17.0941 53.0059L20.2902 46.4835C20.6086 45.9274 20.6938 45.2651 20.5271 44.6428C20.3604 44.0206 19.9554 43.4896 19.4017 43.1672C18.3369 42.5573 16.9888 42.9185 16.3716 43.9791Z"/>
</mask>
<path fill-rule="evenodd" clip-rule="evenodd" d="M49.3176 18.8635C46.5261 8.44548 35.9076 2.23887 25.6005 5.00066C20.6508 6.32692 16.4364 9.58626 13.8844 14.0617C11.3323 18.5371 10.6517 23.8619 11.9922 28.8648C14.7837 39.2829 25.4023 45.4895 35.7094 42.7277C46.0165 39.9659 52.1091 29.2815 49.3176 18.8635ZM16.3716 43.9791L12.0155 49.9551L11.919 49.981C11.0991 51.4189 11.5929 53.2617 13.0219 54.097C14.451 54.9323 16.2742 54.4438 17.0941 53.0059L20.2902 46.4835C20.6086 45.9274 20.6938 45.2651 20.5271 44.6428C20.3604 44.0206 19.9554 43.4896 19.4017 43.1672C18.3369 42.5573 16.9888 42.9185 16.3716 43.9791Z" fill="#72DC60" fill-opacity="0.35"/>
<path d="M13.8844 14.0617L13.0157 13.5663L13.8844 14.0617ZM12.0155 49.9551L12.8236 50.5442C12.689 50.7289 12.4951 50.8619 12.2743 50.9211L12.0155 49.9551ZM16.3716 43.9791L17.2359 44.4821C17.2187 44.5117 17.1999 44.5405 17.1797 44.5682L16.3716 43.9791ZM11.919 49.981L11.0503 49.4856C11.1826 49.2536 11.4022 49.0842 11.6602 49.0151L11.919 49.981ZM13.0219 54.097L13.5265 53.2337L13.0219 54.097ZM17.0941 53.0059L17.9921 53.4459C17.9829 53.4647 17.9732 53.4831 17.9628 53.5012L17.0941 53.0059ZM20.2902 46.4835L19.3923 46.0434C19.4017 46.0242 19.4118 46.0052 19.4224 45.9866L20.2902 46.4835ZM19.4017 43.1672L19.8987 42.2995L19.9048 42.303L19.4017 43.1672ZM25.3417 4.03474C36.192 1.1274 47.3517 7.66296 50.2836 18.6047L48.3517 19.1223C45.7005 9.22799 35.6232 3.35034 25.8593 5.96659L25.3417 4.03474ZM13.0157 13.5663C15.6992 8.86031 20.1325 5.43054 25.3417 4.03474L25.8593 5.96659C21.1692 7.2233 17.1736 10.3122 14.753 14.557L13.0157 13.5663ZM11.0263 29.1236C9.61801 23.8679 10.3324 18.2718 13.0157 13.5663L14.753 14.557C12.3322 18.8023 11.6854 23.856 12.9581 28.606L11.0263 29.1236ZM35.9682 43.6936C25.1179 46.6009 13.9581 40.0654 11.0263 29.1236L12.9581 28.606C15.6093 38.5003 25.6866 44.378 35.4506 41.7617L35.9682 43.6936ZM50.2836 18.6047C53.2154 29.5464 46.8185 40.7863 35.9682 43.6936L35.4506 41.7617C45.2145 39.1455 51.0029 29.0167 48.3517 19.1223L50.2836 18.6047ZM11.2074 49.3661L15.5635 43.3901L17.1797 44.5682L12.8236 50.5442L11.2074 49.3661ZM11.6602 49.0151L11.7567 48.9892L12.2743 50.9211L12.1779 50.9469L11.6602 49.0151ZM12.5173 54.9604C10.615 53.8485 9.95888 51.3997 11.0503 49.4856L12.7877 50.4763C12.2393 51.4381 12.5707 52.675 13.5265 53.2337L12.5173 54.9604ZM17.9628 53.5012C16.8672 55.4226 14.4268 56.0765 12.5173 54.9604L13.5265 53.2337C14.4752 53.7882 15.6811 53.465 16.2254 52.5105L17.9628 53.5012ZM21.1882 46.9235L17.9921 53.4459L16.1962 52.5658L19.3923 46.0434L21.1882 46.9235ZM21.493 44.384C21.7277 45.2597 21.6084 46.1938 21.1581 46.9803L19.4224 45.9866C19.6088 45.661 19.66 45.2705 19.5612 44.9016L21.493 44.384ZM19.9048 42.303C20.688 42.759 21.2584 43.5083 21.493 44.384L19.5612 44.9016C19.4624 44.5328 19.2228 44.2202 18.8985 44.0314L19.9048 42.303ZM15.5073 43.4762C16.4009 41.9405 18.357 41.4164 19.8987 42.2995L18.9046 44.035C18.3167 43.6982 17.5767 43.8965 17.2359 44.4821L15.5073 43.4762Z" fill="url(#paint1_linear_5105_1994)" mask="url(#path-3-outside-1_5105_1994)"/>
</g>
</g>
<defs>
<filter id="filter0_f_5105_1994" x="22.5" y="10.8125" width="44.127" height="44.2598" filterUnits="userSpaceOnUse" color-interpolation-filters="sRGB">
<feFlood flood-opacity="0" result="BackgroundImageFix"/>
<feBlend mode="normal" in="SourceGraphic" in2="BackgroundImageFix" result="shape"/>
<feGaussianBlur stdDeviation="7.5" result="effect1_foregroundBlur_5105_1994"/>
</filter>
<filter id="filter1_b_5105_1994" x="-13.6802" y="-20.6562" width="88.6748" height="100.161" filterUnits="userSpaceOnUse" color-interpolation-filters="sRGB">
<feFlood flood-opacity="0" result="BackgroundImageFix"/>
<feGaussianBlur in="BackgroundImageFix" stdDeviation="12"/>
<feComposite in2="SourceAlpha" operator="in" result="effect1_backgroundBlur_5105_1994"/>
<feBlend mode="normal" in="SourceGraphic" in2="effect1_backgroundBlur_5105_1994" result="shape"/>
</filter>
<filter id="filter2_b_5105_1994" x="-13.6802" y="-20.6562" width="88.6748" height="100.161" filterUnits="userSpaceOnUse" color-interpolation-filters="sRGB">
<feFlood flood-opacity="0" result="BackgroundImageFix"/>
<feGaussianBlur in="BackgroundImageFix" stdDeviation="12"/>
<feComposite in2="SourceAlpha" operator="in" result="effect1_backgroundBlur_5105_1994"/>
<feBlend mode="normal" in="SourceGraphic" in2="effect1_backgroundBlur_5105_1994" result="shape"/>
</filter>
<linearGradient id="paint0_linear_5105_1994" x1="64.6135" y1="24.7599" x2="37.5983" y2="43.3045" gradientUnits="userSpaceOnUse">
<stop stop-color="#9BF763"/>
<stop offset="1" stop-color="#26AB5B"/>
</linearGradient>
<linearGradient id="paint1_linear_5105_1994" x1="38.6945" y1="6.92569" x2="20.1485" y2="48.7431" gradientUnits="userSpaceOnUse">
<stop stop-color="white" stop-opacity="0.25"/>
<stop offset="1" stop-color="white" stop-opacity="0"/>
</linearGradient>
</defs>
</svg>
