<svg width="33" height="32" viewBox="0 0 33 32" fill="none" xmlns="http://www.w3.org/2000/svg">
<path d="M31.2527 7.17593L25.6316 5.5266L22.0501 4.47548C21.9574 4.44803 21.8579 4.47433 21.7893 4.54182L20.3491 5.98183C20.2462 6.08477 20.2462 6.25176 20.3491 6.3547L27.0626 13.0675C27.1656 13.1704 27.3326 13.1704 27.4355 13.0675L28.0818 12.4213C28.1848 12.3183 28.1848 12.1513 28.0818 12.0484L22.272 6.23918C22.232 6.19914 22.232 6.13509 22.272 6.09506C22.2983 6.06875 22.3372 6.05846 22.3727 6.0699L24.0393 6.55943L25.6614 7.03524L30.516 8.46039C30.5915 8.48212 30.6556 8.53702 30.6853 8.61022C31.1864 9.84206 30.937 11.3084 29.9372 12.308L21.0709 21.1734C20.968 21.2764 20.801 21.2764 20.698 21.1734L17.3853 17.8611C17.3224 17.7982 17.3224 17.6952 17.3853 17.6323L23.4651 11.5532C23.568 11.4502 23.568 11.2832 23.4651 11.1803L13.5784 1.29807H13.5773C12.104 -0.0756003 9.98205 -0.359256 8.23991 0.448248C7.99397 0.561482 7.75604 0.697591 7.52841 0.855432C7.47922 0.889745 7.44261 0.941215 7.4266 0.998403L5.77711 6.61891L4.72587 10.2001C4.69842 10.2927 4.72473 10.3922 4.79222 10.4608L6.23238 11.9009C6.33533 12.0038 6.50234 12.0038 6.60529 11.9009L13.3188 5.18805C13.4217 5.08511 13.4217 4.91812 13.3188 4.81518L12.6736 4.17009C12.5707 4.06715 12.4037 4.06715 12.3007 4.17009L6.4909 9.97932C6.45086 10.0193 6.3868 10.0193 6.34677 9.97932C6.32046 9.95301 6.31016 9.91412 6.3216 9.87867L6.81119 8.21219L7.28705 6.59031L8.71233 1.73614C8.73407 1.66065 8.78897 1.5966 8.86218 1.56686C10.0942 1.06589 11.5606 1.31523 12.5604 2.31489L21.4267 11.1803C21.5296 11.2832 21.5296 11.4502 21.4267 11.5532L18.114 14.8655C18.0511 14.9284 17.9481 14.9284 17.8852 14.8655L11.8054 8.78636C11.7025 8.68342 11.5355 8.68342 11.4325 8.78636L1.54815 18.6709H1.54929C0.174334 20.1463 -0.109351 22.268 0.698236 24.0088C0.811481 24.2548 0.947604 24.4927 1.10546 24.7203C1.13978 24.7695 1.19125 24.8061 1.24845 24.8221L6.86953 26.4714L10.451 27.5225C10.5437 27.55 10.6432 27.5237 10.7119 27.4562L12.152 26.0162C12.255 25.9132 12.255 25.7462 12.152 25.6433L5.43852 18.9305C5.33557 18.8276 5.16856 18.8276 5.06561 18.9305L4.41931 19.5767C4.31636 19.6797 4.31636 19.8467 4.41931 19.9496L10.2291 25.7588C10.2692 25.7989 10.2692 25.8629 10.2291 25.9029C10.2028 25.9292 10.1639 25.9395 10.1285 25.9281L8.46182 25.4386L6.83978 24.9628L1.98511 23.5376C1.90962 23.5159 1.84556 23.461 1.81582 23.3878C1.31479 22.1559 1.56416 20.6896 2.56392 19.69L11.4302 10.8246C11.5332 10.7216 11.7002 10.7216 11.8031 10.8246L15.1158 14.1369C15.1787 14.1998 15.1787 14.3028 15.1158 14.3657L9.03605 20.4448C8.9331 20.5478 8.9331 20.7148 9.03605 20.8177L18.9216 30.7022H18.9227C20.396 32.0759 22.5179 32.3595 24.2589 31.5509C24.5049 31.4377 24.7428 31.3016 24.9704 31.1437C25.0196 31.1094 25.0562 31.0579 25.0723 31.0007L26.7217 25.3802L27.773 21.7991C27.8004 21.7064 27.7741 21.6069 27.7066 21.5383L26.2665 20.0983C26.1635 19.9953 25.9965 19.9953 25.8936 20.0983L19.1801 26.8111C19.0771 26.914 19.0771 27.081 19.1801 27.184L19.8252 27.8291C19.9282 27.932 20.0952 27.932 20.1981 27.8291L26.008 22.0198C26.048 21.9798 26.1121 21.9798 26.1521 22.0198C26.1784 22.0461 26.1887 22.085 26.1773 22.1205L25.6877 23.787L25.2118 25.4088L23.7865 30.263C23.7648 30.3385 23.7099 30.4025 23.6367 30.4323C22.4047 30.9333 20.9382 30.6839 19.9385 29.6843L11.0722 20.8189C10.9692 20.7159 10.9692 20.5489 11.0722 20.446L14.3849 17.1336C14.4478 17.0707 14.5508 17.0707 14.6137 17.1336L20.6934 23.2128C20.7964 23.3157 20.9634 23.3157 21.0664 23.2128L30.9519 13.3283H30.9507C32.3257 11.8528 32.6094 9.73112 31.8018 7.99029C31.6885 7.74438 31.5524 7.50648 31.3945 7.27887C31.3602 7.22968 31.3087 7.19308 31.2516 7.17707L31.2527 7.17593ZM16.365 15.3836L16.866 15.8846C16.9289 15.9475 16.9289 16.0505 16.866 16.1134L16.365 16.6143C16.302 16.6773 16.1991 16.6773 16.1362 16.6143L15.6352 16.1134C15.5722 16.0505 15.5722 15.9475 15.6352 15.8846L16.1362 15.3836C16.1991 15.3207 16.302 15.3207 16.365 15.3836Z" fill="#14E3AE"/>
</svg>
