<svg width="20" height="20" viewBox="0 0 20 20" fill="none" xmlns="http://www.w3.org/2000/svg">
<path d="M1.67188 3.23438C1.67187 2.81997 1.82681 2.42255 2.1026 2.12952C2.37839 1.8365 2.75244 1.67188 3.14246 1.67188H13.9268C14.3168 1.67188 14.6909 1.8365 14.9666 2.12952C15.2424 2.42255 15.3974 2.81997 15.3974 3.23438V6.88021H12.4562C11.9362 6.88021 11.4374 7.0997 11.0697 7.4904C10.702 7.8811 10.4954 8.41101 10.4954 8.96354V12.0885H3.14246C2.75244 12.0885 2.37839 11.9239 2.1026 11.6309C1.82681 11.3379 1.67188 10.9404 1.67188 10.526V3.23438ZM3.63266 5.83854C4.15269 5.83854 4.65142 5.61905 5.01914 5.22835C5.38686 4.83765 5.59344 4.30774 5.59344 3.75521V2.71354H4.61305V3.75521C4.61305 4.03148 4.50976 4.29643 4.3259 4.49178C4.14204 4.68713 3.89268 4.79688 3.63266 4.79688H2.65227V5.83854H3.63266ZM6.81893 6.88021C6.81893 7.36368 6.99969 7.82734 7.32145 8.16921C7.6432 8.51107 8.07959 8.70312 8.53462 8.70312C8.98965 8.70312 9.42604 8.51107 9.74779 8.16921C10.0695 7.82734 10.2503 7.36368 10.2503 6.88021C10.2503 6.39674 10.0695 5.93307 9.74779 5.59121C9.42604 5.24935 8.98965 5.05729 8.53462 5.05729C8.07959 5.05729 7.6432 5.24935 7.32145 5.59121C6.99969 5.93307 6.81893 6.39674 6.81893 6.88021ZM2.65227 7.92188V8.96354H3.63266C3.89268 8.96354 4.14204 9.07329 4.3259 9.26864C4.50976 9.46399 4.61305 9.72894 4.61305 10.0052V11.0469H5.59344V10.0052C5.59344 9.45267 5.38686 8.92277 5.01914 8.53207C4.65142 8.14137 4.15269 7.92188 3.63266 7.92188H2.65227ZM14.417 5.83854V4.79688H13.4366C13.1766 4.79688 12.9272 4.68713 12.7433 4.49178C12.5595 4.29643 12.4562 4.03148 12.4562 3.75521V2.71354H11.4758V3.75521C11.4758 4.30774 11.6824 4.83765 12.0501 5.22835C12.4178 5.61905 12.9165 5.83854 13.4366 5.83854H14.417ZM16.3778 6.88021V3.84375C16.6646 3.9515 16.9129 4.15113 17.0885 4.41511C17.2641 4.6791 17.3583 4.99445 17.3581 5.31771V6.88021H16.3778ZM10.4954 13.1302V14.1719H5.10325C4.79901 14.172 4.5022 14.0719 4.25375 13.8854C4.00529 13.6988 3.81741 13.435 3.71599 13.1302H10.4954ZM12.9464 7.92188C12.5564 7.92188 12.1823 8.08649 11.9065 8.37952C11.6307 8.67255 11.4758 9.06997 11.4758 9.48437V16.776C11.4758 17.1904 11.6307 17.5879 11.9065 17.8809C12.1823 18.1739 12.5564 18.3385 12.9464 18.3385H16.868C17.258 18.3385 17.632 18.1739 17.9078 17.8809C18.1836 17.5879 18.3385 17.1904 18.3385 16.776V9.48437C18.3385 9.06997 18.1836 8.67255 17.9078 8.37952C17.632 8.08649 17.258 7.92188 16.868 7.92188H12.9464ZM12.9464 12.0885H13.9268C14.0568 12.0885 14.1815 12.1434 14.2734 12.2411C14.3653 12.3388 14.417 12.4712 14.417 12.6094C14.417 12.7475 14.3653 12.88 14.2734 12.9777C14.1815 13.0753 14.0568 13.1302 13.9268 13.1302H12.9464C12.8164 13.1302 12.6917 13.0753 12.5998 12.9777C12.5078 12.88 12.4562 12.7475 12.4562 12.6094C12.4562 12.4712 12.5078 12.3388 12.5998 12.2411C12.6917 12.1434 12.8164 12.0885 12.9464 12.0885ZM15.8876 12.0885H16.868C16.998 12.0885 17.1226 12.1434 17.2146 12.2411C17.3065 12.3388 17.3581 12.4712 17.3581 12.6094C17.3581 12.7475 17.3065 12.88 17.2146 12.9777C17.1226 13.0753 16.998 13.1302 16.868 13.1302H15.8876C15.7576 13.1302 15.6329 13.0753 15.5409 12.9777C15.449 12.88 15.3974 12.7475 15.3974 12.6094C15.3974 12.4712 15.449 12.3388 15.5409 12.2411C15.6329 12.1434 15.7576 12.0885 15.8876 12.0885ZM12.9464 14.1719H13.9268C14.0568 14.1719 14.1815 14.2267 14.2734 14.3244C14.3653 14.4221 14.417 14.5546 14.417 14.6927C14.417 14.8308 14.3653 14.9633 14.2734 15.061C14.1815 15.1587 14.0568 15.2135 13.9268 15.2135H12.9464C12.8164 15.2135 12.6917 15.1587 12.5998 15.061C12.5078 14.9633 12.4562 14.8308 12.4562 14.6927C12.4562 14.5546 12.5078 14.4221 12.5998 14.3244C12.6917 14.2267 12.8164 14.1719 12.9464 14.1719ZM15.8876 14.1719H16.868C16.998 14.1719 17.1226 14.2267 17.2146 14.3244C17.3065 14.4221 17.3581 14.5546 17.3581 14.6927C17.3581 14.8308 17.3065 14.9633 17.2146 15.061C17.1226 15.1587 16.998 15.2135 16.868 15.2135H15.8876C15.7576 15.2135 15.6329 15.1587 15.5409 15.061C15.449 14.9633 15.3974 14.8308 15.3974 14.6927C15.3974 14.5546 15.449 14.4221 15.5409 14.3244C15.6329 14.2267 15.7576 14.1719 15.8876 14.1719ZM12.9464 16.2552H13.9268C14.0568 16.2552 14.1815 16.3101 14.2734 16.4078C14.3653 16.5054 14.417 16.6379 14.417 16.776C14.417 16.9142 14.3653 17.0467 14.2734 17.1443C14.1815 17.242 14.0568 17.2969 13.9268 17.2969H12.9464C12.8164 17.2969 12.6917 17.242 12.5998 17.1443C12.5078 17.0467 12.4562 16.9142 12.4562 16.776C12.4562 16.6379 12.5078 16.5054 12.5998 16.4078C12.6917 16.3101 12.8164 16.2552 12.9464 16.2552ZM15.8876 16.2552H16.868C16.998 16.2552 17.1226 16.3101 17.2146 16.4078C17.3065 16.5054 17.3581 16.6379 17.3581 16.776C17.3581 16.9142 17.3065 17.0467 17.2146 17.1443C17.1226 17.242 16.998 17.2969 16.868 17.2969H15.8876C15.7576 17.2969 15.6329 17.242 15.5409 17.1443C15.449 17.0467 15.3974 16.9142 15.3974 16.776C15.3974 16.6379 15.449 16.5054 15.5409 16.4078C15.6329 16.3101 15.7576 16.2552 15.8876 16.2552ZM12.4562 9.48437C12.4562 9.34624 12.5078 9.21376 12.5998 9.11609C12.6917 9.01841 12.8164 8.96354 12.9464 8.96354H16.868C16.998 8.96354 17.1226 9.01841 17.2146 9.11609C17.3065 9.21376 17.3581 9.34624 17.3581 9.48437V10.526C17.3581 10.6642 17.3065 10.7967 17.2146 10.8943C17.1226 10.992 16.998 11.0469 16.868 11.0469H12.9464C12.8164 11.0469 12.6917 10.992 12.5998 10.8943C12.5078 10.7967 12.4562 10.6642 12.4562 10.526V9.48437Z" fill="#52BA69"/>
</svg>
