<svg width="16" height="17" viewBox="0 0 16 17" fill="none" xmlns="http://www.w3.org/2000/svg">
<path d="M8.92473 8.49916L13.6122 2.91166C13.6908 2.81881 13.6247 2.67773 13.5033 2.67773H12.0783C11.9944 2.67773 11.914 2.71523 11.8587 2.77952L7.99258 7.38845L4.12651 2.77952C4.07294 2.71523 3.99258 2.67773 3.90687 2.67773H2.48187C2.36044 2.67773 2.29437 2.81881 2.37294 2.91166L7.06044 8.49916L2.37294 14.0867C2.35534 14.1074 2.34405 14.1327 2.3404 14.1596C2.33676 14.1865 2.34092 14.2139 2.35239 14.2386C2.36386 14.2632 2.38216 14.284 2.40511 14.2985C2.42806 14.3131 2.4547 14.3207 2.48187 14.3206H3.90687C3.9908 14.3206 4.07115 14.2831 4.12651 14.2188L7.99258 9.60988L11.8587 14.2188C11.9122 14.2831 11.9926 14.3206 12.0783 14.3206H13.5033C13.6247 14.3206 13.6908 14.1795 13.6122 14.0867L8.92473 8.49916Z" fill="#B3BFD5"/>
</svg>
