<svg width="24" height="20" viewBox="0 0 24 20" fill="none" xmlns="http://www.w3.org/2000/svg">
<g clip-path="url(#clip0_15_9506)">
<path d="M22.9968 17.188C23.7178 18.4378 22.8127 20 21.3727 20H2.62712C1.18427 20 0.28341 18.4354 1.00302 17.188L10.3759 0.936914C11.0973 -0.313437 12.904 -0.311172 13.6241 0.936914L22.9968 17.188ZM12 13.8281C11.0076 13.8281 10.2031 14.6326 10.2031 15.625C10.2031 16.6174 11.0076 17.4219 12 17.4219C12.9924 17.4219 13.7969 16.6174 13.7969 15.625C13.7969 14.6326 12.9924 13.8281 12 13.8281ZM10.294 7.3693L10.5838 12.6818C10.5974 12.9304 10.8029 13.125 11.0518 13.125H12.9482C13.1971 13.125 13.4027 12.9304 13.4162 12.6818L13.706 7.3693C13.7206 7.10078 13.5068 6.875 13.2379 6.875H10.762C10.4931 6.875 10.2794 7.10078 10.294 7.3693Z" fill="#18A058"/>
</g>
<defs>
<clipPath id="clip0_15_9506">
<rect width="22.5" height="20" fill="white" transform="translate(0.75)"/>
</clipPath>
</defs>
</svg>
