<svg width="20" height="20" viewBox="0 0 20 20" fill="none" xmlns="http://www.w3.org/2000/svg">
<g clip-path="url(#clip0_61_22095)">
<path d="M17 0.25H3C2.27065 0.25 1.57118 0.539731 1.05546 1.05546C0.539731 1.57118 0.25 2.27065 0.25 3V6C0.25 6.36114 0.321131 6.71873 0.459331 7.05238C0.597532 7.38602 0.800095 7.68918 1.05546 7.94454C1.57118 8.46027 2.27065 8.75 3 8.75H17C17.7293 8.75 18.4288 8.46027 18.9445 7.94454C19.4603 7.42882 19.75 6.72935 19.75 6V3C19.75 2.27065 19.4603 1.57118 18.9445 1.05546C18.4288 0.539731 17.7293 0.25 17 0.25ZM18.25 6C18.25 6.33152 18.1183 6.64946 17.8839 6.88388C17.6495 7.1183 17.3315 7.25 17 7.25H3C2.66848 7.25 2.35054 7.1183 2.11612 6.88388C1.8817 6.64946 1.75 6.33152 1.75 6V3C1.75 2.66848 1.8817 2.35054 2.11612 2.11612C2.35054 1.8817 2.66848 1.75 3 1.75H17C17.3315 1.75 17.6495 1.8817 17.8839 2.11612C18.1183 2.35054 18.25 2.66848 18.25 3V6ZM17 11.25H3C2.27065 11.25 1.57118 11.5397 1.05546 12.0555C0.539731 12.5712 0.25 13.2707 0.25 14V17C0.25 17.7293 0.539731 18.4288 1.05546 18.9445C1.57118 19.4603 2.27065 19.75 3 19.75H17C17.7293 19.75 18.4288 19.4603 18.9445 18.9445C19.4603 18.4288 19.75 17.7293 19.75 17V14C19.75 13.2707 19.4603 12.5712 18.9445 12.0555C18.4288 11.5397 17.7293 11.25 17 11.25ZM18.25 17C18.25 17.3315 18.1183 17.6495 17.8839 17.8839C17.6495 18.1183 17.3315 18.25 17 18.25H3C2.66848 18.25 2.35054 18.1183 2.11612 17.8839C1.8817 17.6495 1.75 17.3315 1.75 17V14C1.75 13.6685 1.8817 13.3505 2.11612 13.1161C2.35054 12.8817 2.66848 12.75 3 12.75H17C17.3315 12.75 17.6495 12.8817 17.8839 13.1161C18.1183 13.3505 18.25 13.6685 18.25 14V17Z" fill="#6C7275"/>
</g>
<defs>
<clipPath id="clip0_61_22095">
<rect width="20" height="20" fill="white"/>
</clipPath>
</defs>
</svg>
