<svg width="20" height="20" viewBox="0 0 20 20" fill="none" xmlns="http://www.w3.org/2000/svg">
<path d="M10.885 6.18664C11.0785 5.99316 11.3082 5.83968 11.561 5.73497C11.8138 5.63026 12.0847 5.57636 12.3584 5.57636C12.632 5.57636 12.9029 5.63026 13.1557 5.73497C13.4085 5.83968 13.6382 5.99316 13.8317 6.18664C14.0252 6.38012 14.1787 6.60982 14.2834 6.86261C14.3881 7.11541 14.442 7.38635 14.442 7.65997C14.442 7.9336 14.3881 8.20454 14.2834 8.45733C14.1787 8.71013 14.0252 8.93983 13.8317 9.13331C13.4405 9.52124 12.9115 9.7384 12.3605 9.73727C11.8096 9.73614 11.2815 9.51682 10.8919 9.12729C10.5022 8.73776 10.2828 8.20975 10.2815 7.65879C10.2802 7.10784 10.4972 6.57881 10.885 6.18747V6.18664ZM12.9475 7.07081C12.8701 6.99344 12.7782 6.93207 12.6771 6.89022C12.5759 6.84837 12.4675 6.82685 12.3581 6.82689C12.2486 6.82693 12.1402 6.84852 12.0391 6.89045C11.938 6.93237 11.8462 6.9938 11.7688 7.07122C11.6914 7.14865 11.6301 7.24055 11.5882 7.34169C11.5463 7.44283 11.5248 7.55123 11.5249 7.66068C11.5249 7.77014 11.5465 7.87852 11.5884 7.97963C11.6303 8.08074 11.6918 8.1726 11.7692 8.24997C11.9256 8.40623 12.1376 8.49397 12.3587 8.49389C12.5797 8.49381 12.7917 8.40592 12.948 8.24956C13.1042 8.09319 13.1919 7.88115 13.1919 7.6601C13.1918 7.43904 13.1039 7.22706 12.9475 7.07081ZM16.4192 2.08747C16.7742 2.19783 17.0969 2.39289 17.3597 2.6558C17.6225 2.91872 17.8174 3.24162 17.9275 3.59664L18.1 4.14997C18.4044 5.12899 18.4354 6.17258 18.1897 7.16793C17.9439 8.16329 17.4309 9.07256 16.7059 9.79747L15.8742 10.6291C16.2939 11.1904 16.4972 11.884 16.447 12.583C16.3968 13.282 16.0964 13.9395 15.6009 14.435L14.5659 15.4708C14.4487 15.5878 14.2898 15.6536 14.1242 15.6536C13.9586 15.6536 13.7997 15.5878 13.6825 15.4708L12.3575 14.1458L12.21 14.2933C12.0746 14.4287 11.9138 14.5362 11.7369 14.6095C11.56 14.6828 11.3703 14.7205 11.1788 14.7205C10.9873 14.7205 10.7976 14.6828 10.6207 14.6095C10.4437 14.5362 10.283 14.4287 10.1475 14.2933L9.7417 13.8875L9.06587 15.0458C9.01772 15.1284 8.95126 15.1989 8.8716 15.2518C8.79194 15.3047 8.7012 15.3386 8.60638 15.3509C8.51156 15.3632 8.41517 15.3536 8.32464 15.3228C8.23411 15.292 8.15186 15.2409 8.0842 15.1733L4.84253 11.9316C4.7755 11.8644 4.72468 11.7828 4.69391 11.6929C4.66314 11.6031 4.65325 11.5074 4.66498 11.4132C4.6767 11.319 4.70975 11.2287 4.76159 11.1491C4.81344 11.0696 4.88273 11.0029 4.9642 10.9541L6.11753 10.2633L5.72587 9.87164C5.59031 9.7362 5.48277 9.57538 5.4094 9.39836C5.33603 9.22134 5.29826 9.0316 5.29826 8.83997C5.29826 8.64835 5.33603 8.45861 5.4094 8.28159C5.48277 8.10457 5.59031 7.94374 5.72587 7.80831L5.87587 7.65831L4.5492 6.33331C4.43216 6.21612 4.36642 6.05727 4.36642 5.89164C4.36642 5.72601 4.43216 5.56716 4.5492 5.44997L5.58503 4.41414C6.08083 3.91843 6.73867 3.61802 7.43798 3.56797C8.13728 3.51793 8.8312 3.72159 9.39253 4.14164L10.2225 3.31164C10.9471 2.5871 11.8557 2.07423 12.8504 1.82838C13.8451 1.58253 14.8881 1.61305 15.8667 1.91664L16.4192 2.08831V2.08747ZM16.7342 3.96747C16.6841 3.8061 16.5955 3.65935 16.476 3.53986C16.3565 3.42038 16.2097 3.33176 16.0484 3.28164L15.4967 3.11081C14.7354 2.8745 13.924 2.85067 13.1502 3.04189C12.3764 3.23311 11.6695 3.63211 11.1059 4.19581L6.6092 8.69247C6.5898 8.71183 6.57441 8.73481 6.5639 8.76013C6.5534 8.78544 6.548 8.81257 6.548 8.83997C6.548 8.86738 6.5534 8.89451 6.5639 8.91982C6.57441 8.94513 6.5898 8.96812 6.6092 8.98747L11.0317 13.4091C11.0708 13.4481 11.1236 13.4699 11.1788 13.4699C11.2339 13.4699 11.2868 13.4481 11.3259 13.4091L15.8225 8.91331C16.3861 8.34945 16.7849 7.64234 16.9758 6.86834C17.1667 6.09435 17.1425 5.28289 16.9059 4.52164L16.7342 3.96747ZM5.5792 15.3233C5.6896 15.2048 5.7497 15.0481 5.74685 14.8862C5.74399 14.7243 5.6784 14.5698 5.56389 14.4553C5.44938 14.3408 5.29489 14.2752 5.13297 14.2723C4.97105 14.2695 4.81435 14.3296 4.69587 14.44L2.63253 16.5016C2.51529 16.6189 2.44942 16.7779 2.44942 16.9437C2.44942 17.1095 2.51529 17.2686 2.63253 17.3858C2.74978 17.5031 2.9088 17.5689 3.07462 17.5689C3.24043 17.5689 3.39945 17.5031 3.5167 17.3858L5.5792 15.3233ZM3.95837 12.82C4.07541 12.9372 4.14115 13.096 4.14115 13.2616C4.14115 13.4273 4.07541 13.5861 3.95837 13.7033L3.07503 14.5875C2.95721 14.7014 2.79937 14.7645 2.63549 14.7631C2.47162 14.7618 2.31483 14.6961 2.19889 14.5803C2.08296 14.4644 2.01715 14.3077 2.01565 14.1438C2.01415 13.98 2.07707 13.8221 2.19087 13.7041L3.0742 12.82C3.13224 12.7619 3.20116 12.7158 3.27701 12.6844C3.35287 12.653 3.43417 12.6368 3.51628 12.6368C3.59839 12.6368 3.6797 12.653 3.75555 12.6844C3.83141 12.7158 3.90033 12.7619 3.95837 12.82ZM7.19753 16.9466C7.25894 16.8894 7.30819 16.8204 7.34235 16.7438C7.37651 16.6671 7.39488 16.5843 7.39636 16.5004C7.39784 16.4165 7.3824 16.3331 7.35097 16.2553C7.31954 16.1775 7.27275 16.1068 7.2134 16.0474C7.15405 15.9881 7.08336 15.9413 7.00553 15.9099C6.92771 15.8784 6.84435 15.863 6.76043 15.8645C6.67651 15.866 6.59375 15.8843 6.51709 15.9185C6.44042 15.9526 6.37142 16.0019 6.3142 16.0633L5.4317 16.945C5.3213 17.0635 5.2612 17.2202 5.26406 17.3821C5.26691 17.544 5.33251 17.6985 5.44702 17.813C5.56153 17.9275 5.71602 17.9931 5.87793 17.996C6.03985 17.9988 6.19656 17.9387 6.31503 17.8283L7.19837 16.9466H7.19753Z" fill="#D84C10"/>
</svg>
