<svg width="24" height="24" viewBox="0 0 24 24" fill="none" xmlns="http://www.w3.org/2000/svg">
<path d="M7.15363 3.01381C7.98563 2.36581 9.07363 2.00781 10.1546 2.00781C10.8016 2.00781 11.3246 2.22981 11.7216 2.58281C11.8286 2.67781 11.9236 2.78081 12.0086 2.88681C12.0936 2.78081 12.1886 2.67781 12.2956 2.58281C12.6926 2.22981 13.2156 2.00781 13.8626 2.00781C14.9436 2.00781 16.0326 2.36581 16.8626 3.01381C17.5106 3.51681 18.0176 4.21181 18.2166 5.05081C18.6366 5.12081 19.0096 5.33481 19.3116 5.61781C19.7916 6.06881 20.1346 6.72081 20.3496 7.39181C20.5686 8.07281 20.6776 8.83781 20.6446 9.57281C20.6276 9.94881 20.5726 10.3328 20.4676 10.6998L20.5326 10.7298C20.9026 10.9038 21.2026 11.1768 21.4276 11.5398C21.8526 12.2248 22.0026 13.2108 22.0026 14.4678C22.0026 15.9128 21.4496 16.8938 20.7396 17.5028C20.3698 17.82 19.937 18.0551 19.4696 18.1928C19.3001 18.9743 18.9516 19.7058 18.4516 20.3298C17.7286 21.2338 16.6046 21.9978 15.0946 21.9978C13.8846 21.9978 12.9316 21.3278 12.3196 20.6878C12.2111 20.5734 12.1077 20.4543 12.0096 20.3308C11.9112 20.454 11.8075 20.5728 11.6986 20.6868C11.0866 21.3288 10.1336 21.9978 8.92362 21.9978C7.41262 21.9978 6.28863 21.2338 5.56663 20.3298C5.06591 19.706 4.71675 18.9745 4.54663 18.1928C4.07963 18.055 3.64713 17.8199 3.27763 17.5028C2.56763 16.8928 2.01562 15.9128 2.01562 14.4678C2.01562 13.2108 2.16563 12.2248 2.58963 11.5398C2.81458 11.1669 3.15012 10.8733 3.54963 10.6998C3.44688 10.3323 3.38748 9.9541 3.37263 9.57281C3.33963 8.83781 3.44862 8.07281 3.66762 7.39181C3.88262 6.72181 4.22463 6.06881 4.70563 5.61781C5.00645 5.32459 5.38755 5.12726 5.80062 5.05081C6.00062 4.21081 6.50663 3.51681 7.15363 3.01381ZM8.07563 4.19681C7.52963 4.62181 7.20963 5.18781 7.20963 5.83981C7.20954 5.95859 7.18124 6.07564 7.12706 6.18134C7.07288 6.28704 6.99437 6.37836 6.898 6.44779C6.80163 6.51721 6.69014 6.56276 6.57272 6.58067C6.45531 6.59858 6.33531 6.58835 6.22263 6.55081C6.08563 6.50481 5.94062 6.51581 5.73263 6.71181C5.50063 6.92881 5.26562 7.32181 5.09562 7.84981C4.92557 8.38466 4.84977 8.945 4.87162 9.50581C4.89663 10.0618 5.02863 10.5238 5.23663 10.8358C5.27104 10.8875 5.29892 10.9433 5.31962 11.0018H6.40163C7.12159 11.0017 7.81493 11.274 8.34233 11.7641C8.86972 12.2542 9.19208 12.9258 9.24463 13.6438C9.67541 13.8157 10.0331 14.132 10.2564 14.5385C10.4797 14.945 10.5547 15.4165 10.4687 15.8723C10.3827 16.328 10.141 16.7397 9.7849 17.0369C9.4288 17.3341 8.98049 17.4983 8.51669 17.5014C8.05289 17.5044 7.60244 17.3462 7.24243 17.0538C6.88242 16.7614 6.63524 16.3529 6.5432 15.8983C6.45115 15.4437 6.51996 14.9713 6.73785 14.5618C6.95574 14.1524 7.30916 13.8314 7.73763 13.6538C7.69013 13.3335 7.52907 13.0409 7.28381 12.8294C7.03856 12.6179 6.72546 12.5017 6.40163 12.5018H3.77663C3.62663 12.8498 3.51562 13.4508 3.51562 14.4678C3.51562 15.4888 3.88662 16.0488 4.25462 16.3648C4.65762 16.7098 5.10063 16.7998 5.22863 16.7998C5.42754 16.7998 5.6183 16.8788 5.75896 17.0195C5.89961 17.1601 5.97863 17.3509 5.97863 17.5498C5.97863 17.9698 6.21063 18.7328 6.73863 19.3928C7.24662 20.0298 7.97062 20.4978 8.92362 20.4978C9.56063 20.4978 10.1466 20.1398 10.6136 19.6518C10.8396 19.4138 11.0156 19.1668 11.1316 18.9668C11.1755 18.892 11.214 18.8141 11.2466 18.7338L11.2526 18.7198V16.2648V16.2518V9.25181H10.3566C10.1826 9.68208 9.86429 10.0384 9.45633 10.2598C9.04837 10.4811 8.57613 10.5536 8.12054 10.465C7.66495 10.3763 7.25438 10.132 6.95919 9.77381C6.664 9.41564 6.50258 8.96595 6.50258 8.50181C6.50258 8.03768 6.664 7.58799 6.95919 7.22982C7.25438 6.87165 7.66495 6.6273 8.12054 6.53864C8.57613 6.44998 9.04837 6.52254 9.45633 6.74387C9.86429 6.96521 10.1826 7.32155 10.3566 7.75181H11.2526V5.21381L11.2496 5.15681C11.2325 4.84883 11.1719 4.54482 11.0696 4.25381C10.9796 4.01381 10.8626 3.82681 10.7246 3.70381C10.6016 3.59381 10.4316 3.50781 10.1546 3.50781C9.38863 3.50781 8.62962 3.76581 8.07463 4.19781L8.07563 4.19681ZM12.7656 17.0018V18.7198L12.7706 18.7338C12.7906 18.7868 12.8286 18.8658 12.8866 18.9668C13.0016 19.1668 13.1776 19.4138 13.4046 19.6518C13.8706 20.1398 14.4576 20.4978 15.0946 20.4978C16.0466 20.4978 16.7706 20.0298 17.2796 19.3928C17.8066 18.7328 18.0396 17.9688 18.0396 17.5498C18.0396 17.3509 18.1186 17.1601 18.2593 17.0195C18.3999 16.8788 18.5907 16.7998 18.7896 16.7998C18.9176 16.7998 19.3596 16.7098 19.7636 16.3648C20.1306 16.0488 20.5016 15.4888 20.5016 14.4678C20.5016 13.2598 20.3436 12.6378 20.1526 12.3308C20.0928 12.2246 20.0022 12.1392 19.8926 12.0858C19.7916 12.0378 19.6396 12.0018 19.4046 12.0018C19.2689 12.0018 19.1357 11.965 19.0192 11.8952C18.9028 11.8254 18.8075 11.7254 18.7434 11.6057C18.6794 11.486 18.649 11.3512 18.6556 11.2156C18.6621 11.08 18.7053 10.9488 18.7806 10.8358C18.9886 10.5228 19.1206 10.0618 19.1466 9.50581C19.1681 8.94495 19.092 8.38461 18.9216 7.84981C18.7516 7.32181 18.5166 6.92981 18.2856 6.71181C18.0766 6.51581 17.9316 6.50481 17.7956 6.55081C17.6829 6.58854 17.5628 6.59892 17.4452 6.58111C17.3277 6.56329 17.216 6.51778 17.1195 6.44833C17.023 6.37889 16.9444 6.28749 16.8902 6.18169C16.836 6.07589 16.8077 5.95871 16.8076 5.83981C16.8076 5.18781 16.4876 4.62181 15.9416 4.19681C15.3886 3.76581 14.6286 3.50681 13.8616 3.50681C13.5856 3.50681 13.4166 3.59381 13.2926 3.70281C13.1546 3.82681 13.0376 4.01481 12.9486 4.25281C12.8365 4.56126 12.7747 4.88574 12.7656 5.21381V15.5018H13.4016C13.7597 15.5018 14.103 15.3596 14.3562 15.1064C14.6094 14.8532 14.7516 14.5099 14.7516 14.1518V12.3568C14.3214 12.1828 13.965 11.8645 13.7437 11.4565C13.5224 11.0486 13.4498 10.5763 13.5385 10.1207C13.6271 9.66514 13.8715 9.25457 14.2296 8.95938C14.5878 8.66419 15.0375 8.50276 15.5016 8.50276C15.9658 8.50276 16.4154 8.66419 16.7736 8.95938C17.1318 9.25457 17.3761 9.66514 17.4648 10.1207C17.5535 10.5763 17.4809 11.0486 17.2596 11.4565C17.0382 11.8645 16.6819 12.1828 16.2516 12.3568V14.1518C16.2516 14.9077 15.9514 15.6326 15.4169 16.1671C14.8824 16.7015 14.1575 17.0018 13.4016 17.0018H12.7656ZM8.50163 8.00181C8.36902 8.00181 8.24184 8.05449 8.14807 8.14826C8.0543 8.24203 8.00163 8.3692 8.00163 8.50181C8.00163 8.63442 8.0543 8.7616 8.14807 8.85537C8.24184 8.94913 8.36902 9.00181 8.50163 9.00181C8.63423 9.00181 8.76141 8.94913 8.85518 8.85537C8.94895 8.7616 9.00163 8.63442 9.00163 8.50181C9.00163 8.3692 8.94895 8.24203 8.85518 8.14826C8.76141 8.05449 8.63423 8.00181 8.50163 8.00181ZM8.00163 15.5018C8.00163 15.6344 8.0543 15.7616 8.14807 15.8554C8.24184 15.9491 8.36902 16.0018 8.50163 16.0018C8.63423 16.0018 8.76141 15.9491 8.85518 15.8554C8.94895 15.7616 9.00163 15.6344 9.00163 15.5018C9.00163 15.3692 8.94895 15.242 8.85518 15.1483C8.76141 15.0545 8.63423 15.0018 8.50163 15.0018C8.36902 15.0018 8.24184 15.0545 8.14807 15.1483C8.0543 15.242 8.00163 15.3692 8.00163 15.5018ZM15.0016 10.5018C15.0016 10.6344 15.0543 10.7616 15.1481 10.8554C15.2418 10.9491 15.369 11.0018 15.5016 11.0018C15.6342 11.0018 15.7614 10.9491 15.8552 10.8554C15.9489 10.7616 16.0016 10.6344 16.0016 10.5018C16.0016 10.3692 15.9489 10.242 15.8552 10.1483C15.7614 10.0545 15.6342 10.0018 15.5016 10.0018C15.369 10.0018 15.2418 10.0545 15.1481 10.1483C15.0543 10.242 15.0016 10.3692 15.0016 10.5018Z" fill="#92929D"/>
</svg>
