<svg width="20" height="20" viewBox="0 0 20 20" fill="none" xmlns="http://www.w3.org/2000/svg">
<path d="M9.16667 13.75V17.5H5.20833C4.49004 17.5 3.80116 17.2147 3.29325 16.7067C2.78534 16.1988 2.5 15.51 2.5 14.7917V7.08333H17.5V9.89917C17.0899 9.55972 16.574 9.37431 16.0417 9.375H14.9133C14.8322 9.18871 14.6985 9.03021 14.5284 8.91899C14.3584 8.80778 14.1596 8.74871 13.9564 8.74907C13.7532 8.74942 13.5546 8.80918 13.385 8.92099C13.2153 9.03279 13.0821 9.19177 13.0017 9.37833C12.4161 9.40989 11.8649 9.66475 11.4615 10.0904C11.0582 10.5161 10.8333 11.0802 10.8333 11.6667V11.7083C10.3628 11.8044 9.93984 12.0601 9.63612 12.4321C9.33241 12.8042 9.16657 13.2697 9.16667 13.75ZM5 13.5417C5 13.8179 5.10975 14.0829 5.3051 14.2782C5.50045 14.4736 5.7654 14.5833 6.04167 14.5833C6.31793 14.5833 6.58289 14.4736 6.77824 14.2782C6.97359 14.0829 7.08333 13.8179 7.08333 13.5417C7.08333 13.2654 6.97359 13.0004 6.77824 12.8051C6.58289 12.6097 6.31793 12.5 6.04167 12.5C5.7654 12.5 5.50045 12.6097 5.3051 12.8051C5.10975 13.0004 5 13.2654 5 13.5417ZM5 9.79167C5 10.0679 5.10975 10.3329 5.3051 10.5282C5.50045 10.7236 5.7654 10.8333 6.04167 10.8333C6.31793 10.8333 6.58289 10.7236 6.77824 10.5282C6.97359 10.3329 7.08333 10.0679 7.08333 9.79167C7.08333 9.5154 6.97359 9.25045 6.77824 9.0551C6.58289 8.85975 6.31793 8.75 6.04167 8.75C5.7654 8.75 5.50045 8.85975 5.3051 9.0551C5.10975 9.25045 5 9.5154 5 9.79167ZM8.95833 9.79167C8.95833 10.0679 9.06808 10.3329 9.26343 10.5282C9.45878 10.7236 9.72373 10.8333 10 10.8333C10.2763 10.8333 10.5412 10.7236 10.7366 10.5282C10.9319 10.3329 11.0417 10.0679 11.0417 9.79167C11.0417 9.5154 10.9319 9.25045 10.7366 9.0551C10.5412 8.85975 10.2763 8.75 10 8.75C9.72373 8.75 9.45878 8.85975 9.26343 9.0551C9.06808 9.25045 8.95833 9.5154 8.95833 9.79167ZM17.5 5.20833C17.5 4.49004 17.2147 3.80116 16.7067 3.29325C16.1988 2.78534 15.51 2.5 14.7917 2.5H5.20833C4.49004 2.5 3.80116 2.78534 3.29325 3.29325C2.78534 3.80116 2.5 4.49004 2.5 5.20833V5.83333H17.5V5.20833ZM11.6667 12.5H11.25C10.9185 12.5 10.6005 12.6317 10.3661 12.8661C10.1317 13.1005 10 13.4185 10 13.75V15H12.0833V14.7917C12.0833 14.6259 12.1492 14.4669 12.2664 14.3497C12.3836 14.2325 12.5426 14.1667 12.7083 14.1667C12.8741 14.1667 13.0331 14.2325 13.1503 14.3497C13.2675 14.4669 13.3333 14.6259 13.3333 14.7917V15H15.8333V14.7917C15.8333 14.6259 15.8992 14.4669 16.0164 14.3497C16.1336 14.2325 16.2926 14.1667 16.4583 14.1667C16.6241 14.1667 16.7831 14.2325 16.9003 14.3497C17.0175 14.4669 17.0833 14.6259 17.0833 14.7917V15H19.1667V13.75C19.1667 13.4185 19.035 13.1005 18.8005 12.8661C18.5661 12.6317 18.2482 12.5 17.9167 12.5H17.5V11.6667C17.5 11.2799 17.3464 10.909 17.0729 10.6355C16.7994 10.362 16.4284 10.2083 16.0417 10.2083H13.125C12.7382 10.2083 12.3673 10.362 12.0938 10.6355C11.8203 10.909 11.6667 11.2799 11.6667 11.6667V12.5ZM12.9167 11.6667C12.9167 11.6114 12.9386 11.5584 12.9777 11.5194C13.0168 11.4803 13.0697 11.4583 13.125 11.4583H16.0417C16.0969 11.4583 16.1499 11.4803 16.189 11.5194C16.2281 11.5584 16.25 11.6114 16.25 11.6667V12.5H12.9167V11.6667ZM10 17.9167V16.25H12.0833V16.875C12.0833 17.0408 12.1492 17.1997 12.2664 17.3169C12.3836 17.4342 12.5426 17.5 12.7083 17.5C12.8741 17.5 13.0331 17.4342 13.1503 17.3169C13.2675 17.1997 13.3333 17.0408 13.3333 16.875V16.25H15.8333V16.875C15.8333 17.0408 15.8992 17.1997 16.0164 17.3169C16.1336 17.4342 16.2926 17.5 16.4583 17.5C16.6241 17.5 16.7831 17.4342 16.9003 17.3169C17.0175 17.1997 17.0833 17.0408 17.0833 16.875V16.25H19.1667V17.9167C19.1667 18.2482 19.035 18.5661 18.8005 18.8005C18.5661 19.035 18.2482 19.1667 17.9167 19.1667H11.25C10.9185 19.1667 10.6005 19.035 10.3661 18.8005C10.1317 18.5661 10 18.2482 10 17.9167Z" fill="#E68A1D"/>
</svg>
