<svg width="24" height="24" viewBox="0 0 24 24" fill="none" xmlns="http://www.w3.org/2000/svg">
<path d="M3 5.25C3 4.65326 3.23705 4.08097 3.65901 3.65901C4.08097 3.23705 4.65326 3 5.25 3H18.75C19.3467 3 19.919 3.23705 20.341 3.65901C20.7629 4.08097 21 4.65326 21 5.25V12.022C20.5325 11.7223 20.0284 11.484 19.5 11.313V5.25C19.5 5.05109 19.421 4.86032 19.2803 4.71967C19.1397 4.57902 18.9489 4.5 18.75 4.5H5.25C5.05109 4.5 4.86032 4.57902 4.71967 4.71967C4.57902 4.86032 4.5 5.05109 4.5 5.25V18.75C4.5 19.164 4.836 19.5 5.25 19.5H11.313C11.486 20.034 11.725 20.537 12.022 21H5.25C4.65326 21 4.08097 20.7629 3.65901 20.341C3.23705 19.919 3 19.3467 3 18.75V5.25ZM10.78 7.72C10.9205 7.86063 10.9993 8.05125 10.9993 8.25C10.9993 8.44875 10.9205 8.63937 10.78 8.78L8.78 10.78C8.63937 10.9205 8.44875 10.9993 8.25 10.9993C8.05125 10.9993 7.86063 10.9205 7.72 10.78L6.72 9.78C6.58752 9.63783 6.5154 9.44978 6.51883 9.25548C6.52225 9.06118 6.60097 8.87579 6.73838 8.73838C6.87579 8.60097 7.06118 8.52225 7.25548 8.51882C7.44978 8.5154 7.63783 8.58752 7.78 8.72L8.25 9.19L9.72 7.72C9.86063 7.57955 10.0512 7.50066 10.25 7.50066C10.4488 7.50066 10.6394 7.57955 10.78 7.72ZM10.78 13.22C10.9205 13.3606 10.9993 13.5512 10.9993 13.75C10.9993 13.9488 10.9205 14.1394 10.78 14.28L8.78 16.28C8.63937 16.4205 8.44875 16.4993 8.25 16.4993C8.05125 16.4993 7.86063 16.4205 7.72 16.28L6.72 15.28C6.64631 15.2113 6.58721 15.1285 6.54622 15.0365C6.50523 14.9445 6.48319 14.8452 6.48141 14.7445C6.47963 14.6438 6.49816 14.5438 6.53588 14.4504C6.5736 14.357 6.62974 14.2722 6.70096 14.201C6.77218 14.1297 6.85701 14.0736 6.9504 14.0359C7.04379 13.9982 7.14382 13.9796 7.24452 13.9814C7.34523 13.9832 7.44454 14.0052 7.53654 14.0462C7.62854 14.0872 7.71134 14.1463 7.78 14.22L8.25 14.69L9.72 13.22C9.86063 13.0795 10.0512 13.0007 10.25 13.0007C10.4488 13.0007 10.6394 13.0795 10.78 13.22ZM17.5 12C18.9587 12 20.3576 12.5795 21.3891 13.6109C22.4205 14.6424 23 16.0413 23 17.5C23 18.9587 22.4205 20.3576 21.3891 21.3891C20.3576 22.4205 18.9587 23 17.5 23C16.0413 23 14.6424 22.4205 13.6109 21.3891C12.5795 20.3576 12 18.9587 12 17.5C12 16.0413 12.5795 14.6424 13.6109 13.6109C14.6424 12.5795 16.0413 12 17.5 12ZM18.001 20.503V18H20.503C20.6356 18 20.7628 17.9473 20.8566 17.8536C20.9503 17.7598 21.003 17.6326 21.003 17.5C21.003 17.3674 20.9503 17.2402 20.8566 17.1464C20.7628 17.0527 20.6356 17 20.503 17H18V14.5C18 14.3674 17.9473 14.2402 17.8536 14.1464C17.7598 14.0527 17.6326 14 17.5 14C17.3674 14 17.2402 14.0527 17.1464 14.1464C17.0527 14.2402 17 14.3674 17 14.5V17H14.496C14.3634 17 14.2362 17.0527 14.1424 17.1464C14.0487 17.2402 13.996 17.3674 13.996 17.5C13.996 17.6326 14.0487 17.7598 14.1424 17.8536C14.2362 17.9473 14.3634 18 14.496 18H17.001V20.503C17.001 20.6356 17.0537 20.7628 17.1474 20.8566C17.2412 20.9503 17.3684 21.003 17.501 21.003C17.6336 21.003 17.7608 20.9503 17.8546 20.8566C17.9483 20.7628 18.001 20.6356 18.001 20.503ZM13.25 8.5C13.0511 8.5 12.8603 8.57902 12.7197 8.71967C12.579 8.86032 12.5 9.05109 12.5 9.25C12.5 9.44891 12.579 9.63968 12.7197 9.78033C12.8603 9.92098 13.0511 10 13.25 10H16.75C16.9489 10 17.1397 9.92098 17.2803 9.78033C17.421 9.63968 17.5 9.44891 17.5 9.25C17.5 9.05109 17.421 8.86032 17.2803 8.71967C17.1397 8.57902 16.9489 8.5 16.75 8.5H13.25Z" fill="#92929D"/>
</svg>
