<svg width="24" height="24" viewBox="0 0 24 24" fill="none" xmlns="http://www.w3.org/2000/svg">
<path d="M10.5 7C9.70435 7 8.94129 7.31607 8.37868 7.87868C7.81607 8.44129 7.5 9.20435 7.5 10C7.5 10.7956 7.81607 11.5587 8.37868 12.1213C8.94129 12.6839 9.70435 13 10.5 13C11.2956 13 12.0587 12.6839 12.6213 12.1213C13.1839 11.5587 13.5 10.7956 13.5 10C13.5 9.20435 13.1839 8.44129 12.6213 7.87868C12.0587 7.31607 11.2956 7 10.5 7ZM9 10C9 9.60218 9.15804 9.22064 9.43934 8.93934C9.72064 8.65804 10.1022 8.5 10.5 8.5C10.8978 8.5 11.2794 8.65804 11.5607 8.93934C11.842 9.22064 12 9.60218 12 10C12 10.3978 11.842 10.7794 11.5607 11.0607C11.2794 11.342 10.8978 11.5 10.5 11.5C10.1022 11.5 9.72064 11.342 9.43934 11.0607C9.15804 10.7794 9 10.3978 9 10ZM2 6.25C2 5.65326 2.23705 5.08097 2.65901 4.65901C3.08097 4.23705 3.65326 4 4.25 4H16.75C17.0455 4 17.3381 4.0582 17.611 4.17127C17.884 4.28434 18.1321 4.45008 18.341 4.65901C18.5499 4.86794 18.7157 5.11598 18.8287 5.38896C18.9418 5.66194 19 5.95453 19 6.25V11H17.5V8.5H16.75C16.1533 8.5 15.581 8.26295 15.159 7.84099C14.7371 7.41903 14.5 6.84674 14.5 6.25V5.5H6.5V6.25C6.5 6.84674 6.26295 7.41903 5.84099 7.84099C5.41903 8.26295 4.84674 8.5 4.25 8.5H3.5V11.5H4.25C4.84674 11.5 5.41903 11.7371 5.84099 12.159C6.26295 12.581 6.5 13.1533 6.5 13.75V14.5H14V16H4.25C3.65326 16 3.08097 15.7629 2.65901 15.341C2.23705 14.919 2 14.3467 2 13.75V6.25ZM4.25 5.5C4.05109 5.5 3.86032 5.57902 3.71967 5.71967C3.57902 5.86032 3.5 6.05109 3.5 6.25V7H4.25C4.44891 7 4.63968 6.92098 4.78033 6.78033C4.92098 6.63968 5 6.44891 5 6.25V5.5H4.25ZM17.5 7V6.25C17.5 6.05109 17.421 5.86032 17.2803 5.71967C17.1397 5.57902 16.9489 5.5 16.75 5.5H16V6.25C16 6.664 16.336 7 16.75 7H17.5ZM3.5 13.75C3.5 14.164 3.836 14.5 4.25 14.5H5V13.75C5 13.5511 4.92098 13.3603 4.78033 13.2197C4.63968 13.079 4.44891 13 4.25 13H3.5V13.75ZM4.401 17.5H14V19H7C5.89 19 4.92 18.397 4.401 17.5ZM22 11V9C22 7.89 21.397 6.92 20.5 6.401V11H22ZM16.5 12C16.1022 12 15.7206 12.158 15.4393 12.4393C15.158 12.7206 15 13.1022 15 13.5V21.5C15 21.8978 15.158 22.2794 15.4393 22.5607C15.7206 22.842 16.1022 23 16.5 23H21.5C21.8978 23 22.2794 22.842 22.5607 22.5607C22.842 22.2794 23 21.8978 23 21.5V13.5C23 13.1022 22.842 12.7206 22.5607 12.4393C22.2794 12.158 21.8978 12 21.5 12H16.5ZM17 16.5H18C18.1326 16.5 18.2598 16.5527 18.3536 16.6464C18.4473 16.7402 18.5 16.8674 18.5 17C18.5 17.1326 18.4473 17.2598 18.3536 17.3536C18.2598 17.4473 18.1326 17.5 18 17.5H17C16.8674 17.5 16.7402 17.4473 16.6464 17.3536C16.5527 17.2598 16.5 17.1326 16.5 17C16.5 16.8674 16.5527 16.7402 16.6464 16.6464C16.7402 16.5527 16.8674 16.5 17 16.5ZM20 16.5H21C21.1326 16.5 21.2598 16.5527 21.3536 16.6464C21.4473 16.7402 21.5 16.8674 21.5 17C21.5 17.1326 21.4473 17.2598 21.3536 17.3536C21.2598 17.4473 21.1326 17.5 21 17.5H20C19.8674 17.5 19.7402 17.4473 19.6464 17.3536C19.5527 17.2598 19.5 17.1326 19.5 17C19.5 16.8674 19.5527 16.7402 19.6464 16.6464C19.7402 16.5527 19.8674 16.5 20 16.5ZM17 18.5H18C18.1326 18.5 18.2598 18.5527 18.3536 18.6464C18.4473 18.7402 18.5 18.8674 18.5 19C18.5 19.1326 18.4473 19.2598 18.3536 19.3536C18.2598 19.4473 18.1326 19.5 18 19.5H17C16.8674 19.5 16.7402 19.4473 16.6464 19.3536C16.5527 19.2598 16.5 19.1326 16.5 19C16.5 18.8674 16.5527 18.7402 16.6464 18.6464C16.7402 18.5527 16.8674 18.5 17 18.5ZM20 18.5H21C21.1326 18.5 21.2598 18.5527 21.3536 18.6464C21.4473 18.7402 21.5 18.8674 21.5 19C21.5 19.1326 21.4473 19.2598 21.3536 19.3536C21.2598 19.4473 21.1326 19.5 21 19.5H20C19.8674 19.5 19.7402 19.4473 19.6464 19.3536C19.5527 19.2598 19.5 19.1326 19.5 19C19.5 18.8674 19.5527 18.7402 19.6464 18.6464C19.7402 18.5527 19.8674 18.5 20 18.5ZM17 20.5H18C18.1326 20.5 18.2598 20.5527 18.3536 20.6464C18.4473 20.7402 18.5 20.8674 18.5 21C18.5 21.1326 18.4473 21.2598 18.3536 21.3536C18.2598 21.4473 18.1326 21.5 18 21.5H17C16.8674 21.5 16.7402 21.4473 16.6464 21.3536C16.5527 21.2598 16.5 21.1326 16.5 21C16.5 20.8674 16.5527 20.7402 16.6464 20.6464C16.7402 20.5527 16.8674 20.5 17 20.5ZM20 20.5H21C21.1326 20.5 21.2598 20.5527 21.3536 20.6464C21.4473 20.7402 21.5 20.8674 21.5 21C21.5 21.1326 21.4473 21.2598 21.3536 21.3536C21.2598 21.4473 21.1326 21.5 21 21.5H20C19.8674 21.5 19.7402 21.4473 19.6464 21.3536C19.5527 21.2598 19.5 21.1326 19.5 21C19.5 20.8674 19.5527 20.7402 19.6464 20.6464C19.7402 20.5527 19.8674 20.5 20 20.5ZM16.5 14C16.5 13.8674 16.5527 13.7402 16.6464 13.6464C16.7402 13.5527 16.8674 13.5 17 13.5H21C21.1326 13.5 21.2598 13.5527 21.3536 13.6464C21.4473 13.7402 21.5 13.8674 21.5 14V15C21.5 15.1326 21.4473 15.2598 21.3536 15.3536C21.2598 15.4473 21.1326 15.5 21 15.5H17C16.8674 15.5 16.7402 15.4473 16.6464 15.3536C16.5527 15.2598 16.5 15.1326 16.5 15V14Z" fill="#FEFEFE"/>
</svg>
