<svg width="20" height="20" viewBox="0 0 20 20" fill="none" xmlns="http://www.w3.org/2000/svg">
<path d="M11.4531 1.66406H8.53646C8.07526 1.66408 7.63025 1.83407 7.28649 2.14154C6.94274 2.44901 6.72437 2.87239 6.67312 3.33073H5.20312C4.70584 3.33073 4.22893 3.52827 3.8773 3.8799C3.52567 4.23153 3.32812 4.70845 3.32812 5.20573V16.4557C3.32813 16.953 3.52567 17.4299 3.8773 17.7816C4.22893 18.1332 4.70584 18.3307 5.20312 18.3307H14.7865C15.0327 18.3307 15.2765 18.2822 15.504 18.188C15.7315 18.0938 15.9382 17.9557 16.1123 17.7816C16.2864 17.6074 16.4245 17.4007 16.5187 17.1733C16.613 16.9458 16.6615 16.702 16.6615 16.4557V5.20573C16.6615 4.9595 16.613 4.71568 16.5187 4.4882C16.4245 4.26071 16.2864 4.05401 16.1123 3.8799C15.9382 3.70579 15.7315 3.56768 15.504 3.47345C15.2765 3.37923 15.0327 3.33073 14.7865 3.33073H13.3165C13.2652 2.87239 13.0468 2.44901 12.7031 2.14154C12.3593 1.83407 11.9143 1.66408 11.4531 1.66406ZM8.53646 2.91406H11.4531C11.6189 2.91406 11.7779 2.97991 11.8951 3.09712C12.0123 3.21433 12.0781 3.3733 12.0781 3.53906C12.0781 3.70482 12.0123 3.86379 11.8951 3.981C11.7779 4.09821 11.6189 4.16406 11.4531 4.16406H8.53646C8.3707 4.16406 8.21173 4.09821 8.09452 3.981C7.97731 3.86379 7.91146 3.70482 7.91146 3.53906C7.91146 3.3733 7.97731 3.21433 8.09452 3.09712C8.21173 2.97991 8.3707 2.91406 8.53646 2.91406ZM14.3948 7.26406C14.5118 7.38125 14.5776 7.5401 14.5776 7.70573C14.5776 7.87135 14.5118 8.03021 14.3948 8.1474L12.7281 9.81406C12.6109 9.9311 12.4521 9.99685 12.2865 9.99685C12.1208 9.99685 11.962 9.9311 11.8448 9.81406L11.0115 8.98073C10.9501 8.92351 10.9008 8.85451 10.8666 8.77784C10.8325 8.70118 10.8141 8.61842 10.8126 8.5345C10.8112 8.45058 10.8266 8.36722 10.858 8.2894C10.8895 8.21157 10.9362 8.14088 10.9956 8.08153C11.0549 8.02218 11.1256 7.97539 11.2035 7.94396C11.2813 7.91253 11.3646 7.89709 11.4486 7.89857C11.5325 7.90005 11.6152 7.91842 11.6919 7.95258C11.7686 7.98674 11.8376 8.03599 11.8948 8.0974L12.2865 8.48906L13.5115 7.26406C13.6286 7.14702 13.7875 7.08128 13.9531 7.08128C14.1188 7.08128 14.2776 7.14702 14.3948 7.26406ZM14.3948 12.7307L12.7281 14.3974C12.6109 14.5144 12.4521 14.5802 12.2865 14.5802C12.1208 14.5802 11.962 14.5144 11.8448 14.3974L11.0115 13.5641C10.9501 13.5068 10.9008 13.4378 10.8666 13.3612C10.8325 13.2845 10.8141 13.2017 10.8126 13.1178C10.8112 13.0339 10.8266 12.9506 10.858 12.8727C10.8895 12.7949 10.9362 12.7242 10.9956 12.6649C11.0549 12.6055 11.1256 12.5587 11.2035 12.5273C11.2813 12.4959 11.3646 12.4804 11.4486 12.4819C11.5325 12.4834 11.6152 12.5018 11.6919 12.5359C11.7686 12.5701 11.8376 12.6193 11.8948 12.6807L12.2865 13.0724L13.5115 11.8474C13.5687 11.786 13.6377 11.7367 13.7143 11.7026C13.791 11.6684 13.8738 11.65 13.9577 11.6486C14.0416 11.6471 14.125 11.6625 14.2028 11.694C14.2806 11.7254 14.3513 11.7722 14.4107 11.8315C14.47 11.8909 14.5168 11.9616 14.5482 12.0394C14.5797 12.1172 14.5951 12.2006 14.5936 12.2845C14.5921 12.3684 14.5738 12.4512 14.5396 12.5278C14.5054 12.6045 14.4562 12.6735 14.3948 12.7307ZM5.82812 8.53906C5.82812 8.3733 5.89397 8.21433 6.01118 8.09712C6.12839 7.97991 6.28736 7.91406 6.45312 7.91406H9.36979C9.53555 7.91406 9.69452 7.97991 9.81173 8.09712C9.92894 8.21433 9.99479 8.3733 9.99479 8.53906C9.99479 8.70482 9.92894 8.86379 9.81173 8.981C9.69452 9.09821 9.53555 9.16406 9.36979 9.16406H6.45312C6.28736 9.16406 6.12839 9.09821 6.01118 8.981C5.89397 8.86379 5.82812 8.70482 5.82812 8.53906ZM6.45312 12.4974H9.36979C9.53555 12.4974 9.69452 12.5632 9.81173 12.6805C9.92894 12.7977 9.99479 12.9566 9.99479 13.1224C9.99479 13.2882 9.92894 13.4471 9.81173 13.5643C9.69452 13.6815 9.53555 13.7474 9.36979 13.7474H6.45312C6.28736 13.7474 6.12839 13.6815 6.01118 13.5643C5.89397 13.4471 5.82812 13.2882 5.82812 13.1224C5.82812 12.9566 5.89397 12.7977 6.01118 12.6805C6.12839 12.5632 6.28736 12.4974 6.45312 12.4974Z" fill="#8E55EA"/>
</svg>
