<svg width="25" height="24" viewBox="0 0 25 24" fill="none" xmlns="http://www.w3.org/2000/svg">
<path fill-rule="evenodd" clip-rule="evenodd" d="M5.1829 4.6829C1.6057 8.2601 1.6057 14.0599 5.1829 17.6371C8.7601 21.2143 14.5599 21.2143 18.1371 17.6371C21.7143 14.0599 21.7143 8.2601 18.1371 4.6829C14.5599 1.1057 8.7601 1.1057 5.1829 4.6829ZM6.59712 6.09712C9.39327 3.30096 13.9267 3.30096 16.7229 6.09712C19.519 8.89327 19.519 13.4267 16.7229 16.2229C13.9267 19.019 9.39327 19.019 6.59712 16.2229C3.80096 13.4267 3.80096 8.89327 6.59712 6.09712Z" fill="#6C7275"/>
<path d="M22.5943 20.2825L18.4649 16.153C17.5221 15.2102 16.1078 16.6244 17.0506 17.5672L21.1801 21.6967C22.1229 22.6395 23.5371 21.2253 22.5943 20.2825Z" fill="#6C7275"/>
</svg>
