<svg width="20" height="20" viewBox="0 0 20 20" fill="none" xmlns="http://www.w3.org/2000/svg">
<path d="M4.65104 1.726C4.75714 1.77701 4.84667 1.85695 4.90933 1.95661C4.97198 2.05628 5.00522 2.17161 5.00521 2.28933C5.00521 2.981 5.26521 3.37933 5.59104 3.86433L5.61521 3.89933C5.89188 4.311 6.25521 4.85016 6.25521 5.62266C6.25521 6.411 5.85771 7.106 5.25188 7.5185C5.41104 7.65183 5.55188 7.816 5.67354 8.01266C6.07021 8.65433 6.25521 9.63516 6.25521 11.0435C6.25521 12.4702 6.06354 14.1835 5.75104 15.5518C5.59604 16.2318 5.40354 16.8593 5.17438 17.3302C5.06021 17.5643 4.92104 17.7927 4.74938 17.9718C4.57771 18.1477 4.31354 18.3352 3.96354 18.3352C3.61354 18.3352 3.34938 18.1477 3.17854 17.9718C3.00455 17.7812 2.86118 17.5647 2.75354 17.3302C2.52354 16.8585 2.33104 16.2318 2.17604 15.551C1.851 14.07 1.68202 12.5589 1.67188 11.0427C1.67188 9.63433 1.85688 8.65433 2.25354 8.01266C2.36671 7.82641 2.50908 7.65956 2.67521 7.5185C2.36585 7.30847 2.11266 7.02586 1.93775 6.69537C1.76285 6.36488 1.67156 5.99658 1.67188 5.62266C1.67188 5.316 1.67188 4.7885 1.99104 4.10766C2.30354 3.441 2.89771 2.67516 3.98938 1.801C4.08138 1.7274 4.19232 1.68131 4.30939 1.66804C4.42646 1.65477 4.5449 1.67486 4.65104 1.726ZM8.33854 12.4285C7.89705 12.3544 7.4676 12.221 7.06188 12.0318C7.07938 11.6935 7.08854 11.3618 7.08854 11.0435C7.08854 10.7052 7.07854 10.3818 7.05688 10.0735C7.42604 10.3777 7.86188 10.6035 8.33854 10.726V8.74766C8.33854 8.41614 8.47024 8.0982 8.70466 7.86378C8.93908 7.62936 9.25702 7.49766 9.58854 7.49766H12.5052C12.5053 6.86183 12.3235 6.23923 11.9813 5.70333C11.6391 5.16743 11.1508 4.74058 10.5739 4.47313C9.99709 4.20568 9.35578 4.1088 8.72567 4.19392C8.09556 4.27903 7.50293 4.54259 7.01771 4.9535C6.87354 4.27516 6.53854 3.7785 6.32438 3.461L6.29104 3.411C7.03976 2.8832 7.91908 2.57124 8.83302 2.50915C9.74696 2.44707 10.6604 2.63726 11.4736 3.05896C12.2868 3.48065 12.9685 4.11765 13.4444 4.90041C13.9202 5.68318 14.1719 6.58162 14.1719 7.49766H17.0885C17.4201 7.49766 17.738 7.62936 17.9724 7.86378C18.2068 8.0982 18.3385 8.41614 18.3385 8.74766V16.2477C18.3385 16.5792 18.2068 16.8971 17.9724 17.1315C17.738 17.366 17.4201 17.4977 17.0885 17.4977H9.58854C9.25702 17.4977 8.93908 17.366 8.70466 17.1315C8.47024 16.8971 8.33854 16.5792 8.33854 16.2477V12.4285ZM10.0052 12.4285V15.831H16.6719V9.16433H13.8877C13.5898 10.005 13.0728 10.7508 12.3901 11.3247C11.7073 11.8985 10.8837 12.2796 10.0044 12.4285H10.0052ZM12.0594 9.16433H10.0052V10.726C10.4341 10.6149 10.8365 10.4197 11.1892 10.1515C11.5419 9.88344 11.8377 9.54785 12.0594 9.16433Z" fill="#3E90F0"/>
</svg>
