<svg xmlns="http://www.w3.org/2000/svg" width="20" height="20" viewBox="0 0 20 20" fill="none">
  <path d="M10.14 2.2171L10.14 2.2171L12.64 5.38228C12.7312 5.49798 12.6489 5.66932 12.4998 5.66932H10.8458V5.66988H10.8453V13.2212C10.8453 13.3191 10.7651 13.3992 10.6672 13.3992H9.32795C9.23005 13.3992 9.14994 13.3191 9.14994 13.2212V5.66988H9.14938V5.66932H7.49983C7.35075 5.66932 7.2684 5.49799 7.35964 5.38004L9.85964 2.2171L9.85964 2.2171C9.87629 2.19582 9.89757 2.17861 9.92186 2.16678C9.94615 2.15495 9.97281 2.1488 9.99983 2.1488C10.0268 2.1488 10.0535 2.15495 10.0778 2.16678C10.1021 2.17861 10.1234 2.19582 10.14 2.2171ZM16.8302 12.5521H18.1695C18.2674 12.5521 18.3475 12.6322 18.3475 12.7301V17.1498C18.3475 17.5446 18.0285 17.8635 17.6338 17.8635H2.3659C1.97112 17.8635 1.65217 17.5446 1.65217 17.1498V12.7301C1.65217 12.6322 1.73228 12.5521 1.83018 12.5521H3.16947C3.26737 12.5521 3.34748 12.6322 3.34748 12.7301V16.1676H3.34804V16.1682H16.6516V16.1676H16.6522V12.7301C16.6522 12.6322 16.7323 12.5521 16.8302 12.5521Z" fill="black" fill-opacity="0.85" stroke="#0A142C" stroke-width="0.00111607"/>
</svg>